<mxfile host="app.diagrams.net" agent="Mozilla/5.0 (Windows NT 10.0; Win64; x64) AppleWebKit/537.36 (KHTML, like Gecko) Chrome/130.0.0.0 Safari/537.36 Edg/130.0.0.0" version="24.8.1">
  <diagram name="Page-1" id="i2yK9FljDDNBqTApIz3o">
    <mxGraphModel dx="1750" dy="950" grid="1" gridSize="10" guides="1" tooltips="1" connect="1" arrows="1" fold="1" page="1" pageScale="1" pageWidth="827" pageHeight="1169" math="0" shadow="0">
      <root>
        <mxCell id="0" />
        <mxCell id="1" parent="0" />
        <mxCell id="76QTgGwpYq9l9VvrMHTE-27" value="" style="edgeStyle=orthogonalEdgeStyle;rounded=0;orthogonalLoop=1;jettySize=auto;html=1;endArrow=none;endFill=0;startArrow=ERzeroToMany;startFill=0;" edge="1" parent="1" source="76QTgGwpYq9l9VvrMHTE-22" target="76QTgGwpYq9l9VvrMHTE-26">
          <mxGeometry relative="1" as="geometry" />
        </mxCell>
        <mxCell id="76QTgGwpYq9l9VvrMHTE-22" value="" style="rounded=0;whiteSpace=wrap;html=1;" vertex="1" parent="1">
          <mxGeometry x="160" y="280" width="100" height="80" as="geometry" />
        </mxCell>
        <mxCell id="76QTgGwpYq9l9VvrMHTE-19" value="" style="edgeStyle=orthogonalEdgeStyle;rounded=0;orthogonalLoop=1;jettySize=auto;html=1;endArrow=ERzeroToMany;endFill=0;startArrow=ERmandOne;startFill=0;" edge="1" parent="1" source="76QTgGwpYq9l9VvrMHTE-9" target="76QTgGwpYq9l9VvrMHTE-18">
          <mxGeometry relative="1" as="geometry">
            <Array as="points">
              <mxPoint x="210" y="260" />
              <mxPoint x="210" y="260" />
            </Array>
          </mxGeometry>
        </mxCell>
        <mxCell id="76QTgGwpYq9l9VvrMHTE-30" style="edgeStyle=orthogonalEdgeStyle;rounded=0;orthogonalLoop=1;jettySize=auto;html=1;entryX=0.5;entryY=1;entryDx=0;entryDy=0;" edge="1" parent="1" source="76QTgGwpYq9l9VvrMHTE-9" target="76QTgGwpYq9l9VvrMHTE-29">
          <mxGeometry relative="1" as="geometry" />
        </mxCell>
        <mxCell id="76QTgGwpYq9l9VvrMHTE-32" style="edgeStyle=orthogonalEdgeStyle;rounded=0;orthogonalLoop=1;jettySize=auto;html=1;entryX=1;entryY=0.5;entryDx=0;entryDy=0;" edge="1" parent="1" source="76QTgGwpYq9l9VvrMHTE-9" target="76QTgGwpYq9l9VvrMHTE-31">
          <mxGeometry relative="1" as="geometry" />
        </mxCell>
        <mxCell id="76QTgGwpYq9l9VvrMHTE-9" value="Student" style="rounded=0;whiteSpace=wrap;html=1;" vertex="1" parent="1">
          <mxGeometry x="150" y="180" width="120" height="60" as="geometry" />
        </mxCell>
        <mxCell id="76QTgGwpYq9l9VvrMHTE-10" value="ERD" style="text;html=1;align=center;verticalAlign=middle;whiteSpace=wrap;rounded=0;" vertex="1" parent="1">
          <mxGeometry width="60" height="30" as="geometry" />
        </mxCell>
        <mxCell id="76QTgGwpYq9l9VvrMHTE-38" style="edgeStyle=orthogonalEdgeStyle;rounded=0;orthogonalLoop=1;jettySize=auto;html=1;entryX=0.5;entryY=1;entryDx=0;entryDy=0;" edge="1" parent="1" source="76QTgGwpYq9l9VvrMHTE-15" target="76QTgGwpYq9l9VvrMHTE-37">
          <mxGeometry relative="1" as="geometry" />
        </mxCell>
        <mxCell id="76QTgGwpYq9l9VvrMHTE-40" style="edgeStyle=orthogonalEdgeStyle;rounded=0;orthogonalLoop=1;jettySize=auto;html=1;entryX=0;entryY=0.5;entryDx=0;entryDy=0;" edge="1" parent="1" source="76QTgGwpYq9l9VvrMHTE-15" target="76QTgGwpYq9l9VvrMHTE-39">
          <mxGeometry relative="1" as="geometry" />
        </mxCell>
        <mxCell id="76QTgGwpYq9l9VvrMHTE-15" value="Teacher" style="rounded=0;whiteSpace=wrap;html=1;" vertex="1" parent="1">
          <mxGeometry x="570" y="180" width="120" height="60" as="geometry" />
        </mxCell>
        <mxCell id="76QTgGwpYq9l9VvrMHTE-34" style="edgeStyle=orthogonalEdgeStyle;rounded=0;orthogonalLoop=1;jettySize=auto;html=1;entryX=1;entryY=0.5;entryDx=0;entryDy=0;" edge="1" parent="1" source="76QTgGwpYq9l9VvrMHTE-16" target="76QTgGwpYq9l9VvrMHTE-33">
          <mxGeometry relative="1" as="geometry" />
        </mxCell>
        <mxCell id="76QTgGwpYq9l9VvrMHTE-36" style="edgeStyle=orthogonalEdgeStyle;rounded=0;orthogonalLoop=1;jettySize=auto;html=1;entryX=0.5;entryY=0;entryDx=0;entryDy=0;" edge="1" parent="1" source="76QTgGwpYq9l9VvrMHTE-16" target="76QTgGwpYq9l9VvrMHTE-35">
          <mxGeometry relative="1" as="geometry" />
        </mxCell>
        <mxCell id="76QTgGwpYq9l9VvrMHTE-16" value="Course" style="rounded=0;whiteSpace=wrap;html=1;" vertex="1" parent="1">
          <mxGeometry x="150" y="410" width="120" height="60" as="geometry" />
        </mxCell>
        <mxCell id="76QTgGwpYq9l9VvrMHTE-20" style="edgeStyle=orthogonalEdgeStyle;rounded=0;orthogonalLoop=1;jettySize=auto;html=1;entryX=0.5;entryY=0;entryDx=0;entryDy=0;endArrow=ERmandOne;endFill=0;startArrow=ERzeroToMany;startFill=0;" edge="1" parent="1" source="76QTgGwpYq9l9VvrMHTE-18" target="76QTgGwpYq9l9VvrMHTE-16">
          <mxGeometry relative="1" as="geometry" />
        </mxCell>
        <mxCell id="76QTgGwpYq9l9VvrMHTE-98" style="edgeStyle=orthogonalEdgeStyle;rounded=0;orthogonalLoop=1;jettySize=auto;html=1;entryX=1;entryY=0.5;entryDx=0;entryDy=0;" edge="1" parent="1" source="76QTgGwpYq9l9VvrMHTE-18" target="76QTgGwpYq9l9VvrMHTE-97">
          <mxGeometry relative="1" as="geometry" />
        </mxCell>
        <mxCell id="76QTgGwpYq9l9VvrMHTE-18" value="Enrolled" style="rhombus;whiteSpace=wrap;html=1;rounded=0;shadow=0;perimeterSpacing=0;" vertex="1" parent="1">
          <mxGeometry x="170" y="280" width="80" height="80" as="geometry" />
        </mxCell>
        <mxCell id="76QTgGwpYq9l9VvrMHTE-28" style="edgeStyle=orthogonalEdgeStyle;rounded=0;orthogonalLoop=1;jettySize=auto;html=1;endArrow=ERmandOne;endFill=0;" edge="1" parent="1" source="76QTgGwpYq9l9VvrMHTE-26" target="76QTgGwpYq9l9VvrMHTE-15">
          <mxGeometry relative="1" as="geometry" />
        </mxCell>
        <mxCell id="76QTgGwpYq9l9VvrMHTE-26" value="Teach" style="rhombus;whiteSpace=wrap;html=1;rounded=0;" vertex="1" parent="1">
          <mxGeometry x="590" y="280" width="80" height="80" as="geometry" />
        </mxCell>
        <mxCell id="76QTgGwpYq9l9VvrMHTE-29" value="BirthDate" style="ellipse;whiteSpace=wrap;html=1;" vertex="1" parent="1">
          <mxGeometry x="165" y="80" width="90" height="60" as="geometry" />
        </mxCell>
        <mxCell id="76QTgGwpYq9l9VvrMHTE-31" value="StudentID" style="ellipse;whiteSpace=wrap;html=1;fontStyle=4" vertex="1" parent="1">
          <mxGeometry x="10" y="180" width="90" height="60" as="geometry" />
        </mxCell>
        <mxCell id="76QTgGwpYq9l9VvrMHTE-33" value="CourseID" style="ellipse;whiteSpace=wrap;html=1;fontStyle=4" vertex="1" parent="1">
          <mxGeometry x="10" y="410" width="90" height="60" as="geometry" />
        </mxCell>
        <mxCell id="76QTgGwpYq9l9VvrMHTE-35" value="Name" style="ellipse;whiteSpace=wrap;html=1;" vertex="1" parent="1">
          <mxGeometry x="165" y="500" width="90" height="60" as="geometry" />
        </mxCell>
        <mxCell id="76QTgGwpYq9l9VvrMHTE-37" value="Name" style="ellipse;whiteSpace=wrap;html=1;" vertex="1" parent="1">
          <mxGeometry x="585" y="80" width="90" height="60" as="geometry" />
        </mxCell>
        <mxCell id="76QTgGwpYq9l9VvrMHTE-39" value="TeacherID" style="ellipse;whiteSpace=wrap;html=1;fontStyle=4" vertex="1" parent="1">
          <mxGeometry x="720" y="180" width="90" height="60" as="geometry" />
        </mxCell>
        <mxCell id="76QTgGwpYq9l9VvrMHTE-41" value="" style="endArrow=none;html=1;rounded=0;" edge="1" parent="1">
          <mxGeometry width="50" height="50" relative="1" as="geometry">
            <mxPoint y="600" as="sourcePoint" />
            <mxPoint x="821.5238444010416" y="600" as="targetPoint" />
          </mxGeometry>
        </mxCell>
        <mxCell id="76QTgGwpYq9l9VvrMHTE-44" value="RS" style="text;html=1;align=center;verticalAlign=middle;whiteSpace=wrap;rounded=0;" vertex="1" parent="1">
          <mxGeometry y="600" width="60" height="30" as="geometry" />
        </mxCell>
        <mxCell id="76QTgGwpYq9l9VvrMHTE-99" style="edgeStyle=orthogonalEdgeStyle;rounded=0;orthogonalLoop=1;jettySize=auto;html=1;entryX=0;entryY=0.5;entryDx=0;entryDy=0;endArrow=ERzeroToMany;endFill=0;startArrow=ERone;startFill=0;" edge="1" parent="1" source="76QTgGwpYq9l9VvrMHTE-45" target="76QTgGwpYq9l9VvrMHTE-75">
          <mxGeometry relative="1" as="geometry" />
        </mxCell>
        <mxCell id="76QTgGwpYq9l9VvrMHTE-45" value="Student&lt;span style=&quot;color: rgba(0, 0, 0, 0); font-family: monospace; font-size: 0px; font-weight: 400; text-align: start;&quot;&gt;%3CmxGraphModel%3E%3Croot%3E%3CmxCell%20id%3D%220%22%2F%3E%3CmxCell%20id%3D%221%22%20parent%3D%220%22%2F%3E%3CmxCell%20id%3D%222%22%20value%3D%22StudentID%22%20style%3D%22ellipse%3BwhiteSpace%3Dwrap%3Bhtml%3D1%3BfontStyle%3D4%22%20vertex%3D%221%22%20parent%3D%221%22%3E%3CmxGeometry%20x%3D%2210%22%20y%3D%22180%22%20width%3D%2290%22%20height%3D%2260%22%20as%3D%22geometry%22%2F%3E%3C%2FmxCell%3E%3C%2Froot%3E%3C%2FmxGraphModel%3E&lt;/span&gt;" style="shape=table;startSize=30;container=1;collapsible=1;childLayout=tableLayout;fixedRows=1;rowLines=0;fontStyle=1;align=center;resizeLast=1;html=1;" vertex="1" parent="1">
          <mxGeometry x="70" y="670" width="180" height="90" as="geometry" />
        </mxCell>
        <mxCell id="76QTgGwpYq9l9VvrMHTE-46" value="" style="shape=tableRow;horizontal=0;startSize=0;swimlaneHead=0;swimlaneBody=0;fillColor=none;collapsible=0;dropTarget=0;points=[[0,0.5],[1,0.5]];portConstraint=eastwest;top=0;left=0;right=0;bottom=1;" vertex="1" parent="76QTgGwpYq9l9VvrMHTE-45">
          <mxGeometry y="30" width="180" height="30" as="geometry" />
        </mxCell>
        <mxCell id="76QTgGwpYq9l9VvrMHTE-47" value="PK" style="shape=partialRectangle;connectable=0;fillColor=none;top=0;left=0;bottom=0;right=0;fontStyle=1;overflow=hidden;whiteSpace=wrap;html=1;" vertex="1" parent="76QTgGwpYq9l9VvrMHTE-46">
          <mxGeometry width="30" height="30" as="geometry">
            <mxRectangle width="30" height="30" as="alternateBounds" />
          </mxGeometry>
        </mxCell>
        <mxCell id="76QTgGwpYq9l9VvrMHTE-48" value="StudentID" style="shape=partialRectangle;connectable=0;fillColor=none;top=0;left=0;bottom=0;right=0;align=left;spacingLeft=6;fontStyle=5;overflow=hidden;whiteSpace=wrap;html=1;" vertex="1" parent="76QTgGwpYq9l9VvrMHTE-46">
          <mxGeometry x="30" width="150" height="30" as="geometry">
            <mxRectangle width="150" height="30" as="alternateBounds" />
          </mxGeometry>
        </mxCell>
        <mxCell id="76QTgGwpYq9l9VvrMHTE-49" value="" style="shape=tableRow;horizontal=0;startSize=0;swimlaneHead=0;swimlaneBody=0;fillColor=none;collapsible=0;dropTarget=0;points=[[0,0.5],[1,0.5]];portConstraint=eastwest;top=0;left=0;right=0;bottom=0;" vertex="1" parent="76QTgGwpYq9l9VvrMHTE-45">
          <mxGeometry y="60" width="180" height="30" as="geometry" />
        </mxCell>
        <mxCell id="76QTgGwpYq9l9VvrMHTE-50" value="" style="shape=partialRectangle;connectable=0;fillColor=none;top=0;left=0;bottom=0;right=0;editable=1;overflow=hidden;whiteSpace=wrap;html=1;" vertex="1" parent="76QTgGwpYq9l9VvrMHTE-49">
          <mxGeometry width="30" height="30" as="geometry">
            <mxRectangle width="30" height="30" as="alternateBounds" />
          </mxGeometry>
        </mxCell>
        <mxCell id="76QTgGwpYq9l9VvrMHTE-51" value="BirthDate" style="shape=partialRectangle;connectable=0;fillColor=none;top=0;left=0;bottom=0;right=0;align=left;spacingLeft=6;overflow=hidden;whiteSpace=wrap;html=1;" vertex="1" parent="76QTgGwpYq9l9VvrMHTE-49">
          <mxGeometry x="30" width="150" height="30" as="geometry">
            <mxRectangle width="150" height="30" as="alternateBounds" />
          </mxGeometry>
        </mxCell>
        <mxCell id="76QTgGwpYq9l9VvrMHTE-58" value="Teacher" style="shape=table;startSize=30;container=1;collapsible=1;childLayout=tableLayout;fixedRows=1;rowLines=0;fontStyle=1;align=center;resizeLast=1;html=1;" vertex="1" parent="1">
          <mxGeometry x="330" y="880" width="180" height="90" as="geometry" />
        </mxCell>
        <mxCell id="76QTgGwpYq9l9VvrMHTE-59" value="" style="shape=tableRow;horizontal=0;startSize=0;swimlaneHead=0;swimlaneBody=0;fillColor=none;collapsible=0;dropTarget=0;points=[[0,0.5],[1,0.5]];portConstraint=eastwest;top=0;left=0;right=0;bottom=1;" vertex="1" parent="76QTgGwpYq9l9VvrMHTE-58">
          <mxGeometry y="30" width="180" height="30" as="geometry" />
        </mxCell>
        <mxCell id="76QTgGwpYq9l9VvrMHTE-60" value="PK" style="shape=partialRectangle;connectable=0;fillColor=none;top=0;left=0;bottom=0;right=0;fontStyle=1;overflow=hidden;whiteSpace=wrap;html=1;" vertex="1" parent="76QTgGwpYq9l9VvrMHTE-59">
          <mxGeometry width="30" height="30" as="geometry">
            <mxRectangle width="30" height="30" as="alternateBounds" />
          </mxGeometry>
        </mxCell>
        <mxCell id="76QTgGwpYq9l9VvrMHTE-61" value="TeacherID" style="shape=partialRectangle;connectable=0;fillColor=none;top=0;left=0;bottom=0;right=0;align=left;spacingLeft=6;fontStyle=5;overflow=hidden;whiteSpace=wrap;html=1;" vertex="1" parent="76QTgGwpYq9l9VvrMHTE-59">
          <mxGeometry x="30" width="150" height="30" as="geometry">
            <mxRectangle width="150" height="30" as="alternateBounds" />
          </mxGeometry>
        </mxCell>
        <mxCell id="76QTgGwpYq9l9VvrMHTE-62" value="" style="shape=tableRow;horizontal=0;startSize=0;swimlaneHead=0;swimlaneBody=0;fillColor=none;collapsible=0;dropTarget=0;points=[[0,0.5],[1,0.5]];portConstraint=eastwest;top=0;left=0;right=0;bottom=0;" vertex="1" parent="76QTgGwpYq9l9VvrMHTE-58">
          <mxGeometry y="60" width="180" height="30" as="geometry" />
        </mxCell>
        <mxCell id="76QTgGwpYq9l9VvrMHTE-63" value="" style="shape=partialRectangle;connectable=0;fillColor=none;top=0;left=0;bottom=0;right=0;editable=1;overflow=hidden;whiteSpace=wrap;html=1;" vertex="1" parent="76QTgGwpYq9l9VvrMHTE-62">
          <mxGeometry width="30" height="30" as="geometry">
            <mxRectangle width="30" height="30" as="alternateBounds" />
          </mxGeometry>
        </mxCell>
        <mxCell id="76QTgGwpYq9l9VvrMHTE-64" value="Name" style="shape=partialRectangle;connectable=0;fillColor=none;top=0;left=0;bottom=0;right=0;align=left;spacingLeft=6;overflow=hidden;whiteSpace=wrap;html=1;" vertex="1" parent="76QTgGwpYq9l9VvrMHTE-62">
          <mxGeometry x="30" width="150" height="30" as="geometry">
            <mxRectangle width="150" height="30" as="alternateBounds" />
          </mxGeometry>
        </mxCell>
        <mxCell id="76QTgGwpYq9l9VvrMHTE-71" value="Enrollment" style="shape=table;startSize=30;container=1;collapsible=1;childLayout=tableLayout;fixedRows=1;rowLines=0;fontStyle=1;align=center;resizeLast=1;html=1;" vertex="1" parent="1">
          <mxGeometry x="330" y="670" width="180" height="180" as="geometry" />
        </mxCell>
        <mxCell id="76QTgGwpYq9l9VvrMHTE-72" value="" style="shape=tableRow;horizontal=0;startSize=0;swimlaneHead=0;swimlaneBody=0;fillColor=none;collapsible=0;dropTarget=0;points=[[0,0.5],[1,0.5]];portConstraint=eastwest;top=0;left=0;right=0;bottom=1;" vertex="1" parent="76QTgGwpYq9l9VvrMHTE-71">
          <mxGeometry y="30" width="180" height="30" as="geometry" />
        </mxCell>
        <mxCell id="76QTgGwpYq9l9VvrMHTE-73" value="PK" style="shape=partialRectangle;connectable=0;fillColor=none;top=0;left=0;bottom=0;right=0;fontStyle=1;overflow=hidden;whiteSpace=wrap;html=1;" vertex="1" parent="76QTgGwpYq9l9VvrMHTE-72">
          <mxGeometry width="30" height="30" as="geometry">
            <mxRectangle width="30" height="30" as="alternateBounds" />
          </mxGeometry>
        </mxCell>
        <mxCell id="76QTgGwpYq9l9VvrMHTE-74" value="ID" style="shape=partialRectangle;connectable=0;fillColor=none;top=0;left=0;bottom=0;right=0;align=left;spacingLeft=6;fontStyle=5;overflow=hidden;whiteSpace=wrap;html=1;" vertex="1" parent="76QTgGwpYq9l9VvrMHTE-72">
          <mxGeometry x="30" width="150" height="30" as="geometry">
            <mxRectangle width="150" height="30" as="alternateBounds" />
          </mxGeometry>
        </mxCell>
        <mxCell id="76QTgGwpYq9l9VvrMHTE-75" value="" style="shape=tableRow;horizontal=0;startSize=0;swimlaneHead=0;swimlaneBody=0;fillColor=none;collapsible=0;dropTarget=0;points=[[0,0.5],[1,0.5]];portConstraint=eastwest;top=0;left=0;right=0;bottom=0;" vertex="1" parent="76QTgGwpYq9l9VvrMHTE-71">
          <mxGeometry y="60" width="180" height="30" as="geometry" />
        </mxCell>
        <mxCell id="76QTgGwpYq9l9VvrMHTE-76" value="FK" style="shape=partialRectangle;connectable=0;fillColor=none;top=0;left=0;bottom=0;right=0;editable=1;overflow=hidden;whiteSpace=wrap;html=1;" vertex="1" parent="76QTgGwpYq9l9VvrMHTE-75">
          <mxGeometry width="30" height="30" as="geometry">
            <mxRectangle width="30" height="30" as="alternateBounds" />
          </mxGeometry>
        </mxCell>
        <mxCell id="76QTgGwpYq9l9VvrMHTE-77" value="StudentID" style="shape=partialRectangle;connectable=0;fillColor=none;top=0;left=0;bottom=0;right=0;align=left;spacingLeft=6;overflow=hidden;whiteSpace=wrap;html=1;" vertex="1" parent="76QTgGwpYq9l9VvrMHTE-75">
          <mxGeometry x="30" width="150" height="30" as="geometry">
            <mxRectangle width="150" height="30" as="alternateBounds" />
          </mxGeometry>
        </mxCell>
        <mxCell id="76QTgGwpYq9l9VvrMHTE-78" value="" style="shape=tableRow;horizontal=0;startSize=0;swimlaneHead=0;swimlaneBody=0;fillColor=none;collapsible=0;dropTarget=0;points=[[0,0.5],[1,0.5]];portConstraint=eastwest;top=0;left=0;right=0;bottom=0;" vertex="1" parent="76QTgGwpYq9l9VvrMHTE-71">
          <mxGeometry y="90" width="180" height="30" as="geometry" />
        </mxCell>
        <mxCell id="76QTgGwpYq9l9VvrMHTE-79" value="FK" style="shape=partialRectangle;connectable=0;fillColor=none;top=0;left=0;bottom=0;right=0;editable=1;overflow=hidden;whiteSpace=wrap;html=1;" vertex="1" parent="76QTgGwpYq9l9VvrMHTE-78">
          <mxGeometry width="30" height="30" as="geometry">
            <mxRectangle width="30" height="30" as="alternateBounds" />
          </mxGeometry>
        </mxCell>
        <mxCell id="76QTgGwpYq9l9VvrMHTE-80" value="CourseID" style="shape=partialRectangle;connectable=0;fillColor=none;top=0;left=0;bottom=0;right=0;align=left;spacingLeft=6;overflow=hidden;whiteSpace=wrap;html=1;" vertex="1" parent="76QTgGwpYq9l9VvrMHTE-78">
          <mxGeometry x="30" width="150" height="30" as="geometry">
            <mxRectangle width="150" height="30" as="alternateBounds" />
          </mxGeometry>
        </mxCell>
        <mxCell id="76QTgGwpYq9l9VvrMHTE-81" value="" style="shape=tableRow;horizontal=0;startSize=0;swimlaneHead=0;swimlaneBody=0;fillColor=none;collapsible=0;dropTarget=0;points=[[0,0.5],[1,0.5]];portConstraint=eastwest;top=0;left=0;right=0;bottom=0;" vertex="1" parent="76QTgGwpYq9l9VvrMHTE-71">
          <mxGeometry y="120" width="180" height="30" as="geometry" />
        </mxCell>
        <mxCell id="76QTgGwpYq9l9VvrMHTE-82" value="" style="shape=partialRectangle;connectable=0;fillColor=none;top=0;left=0;bottom=0;right=0;editable=1;overflow=hidden;whiteSpace=wrap;html=1;" vertex="1" parent="76QTgGwpYq9l9VvrMHTE-81">
          <mxGeometry width="30" height="30" as="geometry">
            <mxRectangle width="30" height="30" as="alternateBounds" />
          </mxGeometry>
        </mxCell>
        <mxCell id="76QTgGwpYq9l9VvrMHTE-83" value="Grade" style="shape=partialRectangle;connectable=0;fillColor=none;top=0;left=0;bottom=0;right=0;align=left;spacingLeft=6;overflow=hidden;whiteSpace=wrap;html=1;" vertex="1" parent="76QTgGwpYq9l9VvrMHTE-81">
          <mxGeometry x="30" width="150" height="30" as="geometry">
            <mxRectangle width="150" height="30" as="alternateBounds" />
          </mxGeometry>
        </mxCell>
        <mxCell id="76QTgGwpYq9l9VvrMHTE-101" style="shape=tableRow;horizontal=0;startSize=0;swimlaneHead=0;swimlaneBody=0;fillColor=none;collapsible=0;dropTarget=0;points=[[0,0.5],[1,0.5]];portConstraint=eastwest;top=0;left=0;right=0;bottom=0;" vertex="1" parent="76QTgGwpYq9l9VvrMHTE-71">
          <mxGeometry y="150" width="180" height="30" as="geometry" />
        </mxCell>
        <mxCell id="76QTgGwpYq9l9VvrMHTE-102" value="FK" style="shape=partialRectangle;connectable=0;fillColor=none;top=0;left=0;bottom=0;right=0;editable=1;overflow=hidden;whiteSpace=wrap;html=1;" vertex="1" parent="76QTgGwpYq9l9VvrMHTE-101">
          <mxGeometry width="30" height="30" as="geometry">
            <mxRectangle width="30" height="30" as="alternateBounds" />
          </mxGeometry>
        </mxCell>
        <mxCell id="76QTgGwpYq9l9VvrMHTE-103" value="TeacherID" style="shape=partialRectangle;connectable=0;fillColor=none;top=0;left=0;bottom=0;right=0;align=left;spacingLeft=6;overflow=hidden;whiteSpace=wrap;html=1;" vertex="1" parent="76QTgGwpYq9l9VvrMHTE-101">
          <mxGeometry x="30" width="150" height="30" as="geometry">
            <mxRectangle width="150" height="30" as="alternateBounds" />
          </mxGeometry>
        </mxCell>
        <mxCell id="76QTgGwpYq9l9VvrMHTE-84" value="Course" style="shape=table;startSize=30;container=1;collapsible=1;childLayout=tableLayout;fixedRows=1;rowLines=0;fontStyle=1;align=center;resizeLast=1;html=1;" vertex="1" parent="1">
          <mxGeometry x="590" y="670" width="180" height="90" as="geometry" />
        </mxCell>
        <mxCell id="76QTgGwpYq9l9VvrMHTE-85" value="" style="shape=tableRow;horizontal=0;startSize=0;swimlaneHead=0;swimlaneBody=0;fillColor=none;collapsible=0;dropTarget=0;points=[[0,0.5],[1,0.5]];portConstraint=eastwest;top=0;left=0;right=0;bottom=1;" vertex="1" parent="76QTgGwpYq9l9VvrMHTE-84">
          <mxGeometry y="30" width="180" height="30" as="geometry" />
        </mxCell>
        <mxCell id="76QTgGwpYq9l9VvrMHTE-86" value="PK" style="shape=partialRectangle;connectable=0;fillColor=none;top=0;left=0;bottom=0;right=0;fontStyle=1;overflow=hidden;whiteSpace=wrap;html=1;" vertex="1" parent="76QTgGwpYq9l9VvrMHTE-85">
          <mxGeometry width="30" height="30" as="geometry">
            <mxRectangle width="30" height="30" as="alternateBounds" />
          </mxGeometry>
        </mxCell>
        <mxCell id="76QTgGwpYq9l9VvrMHTE-87" value="CourseID" style="shape=partialRectangle;connectable=0;fillColor=none;top=0;left=0;bottom=0;right=0;align=left;spacingLeft=6;fontStyle=5;overflow=hidden;whiteSpace=wrap;html=1;" vertex="1" parent="76QTgGwpYq9l9VvrMHTE-85">
          <mxGeometry x="30" width="150" height="30" as="geometry">
            <mxRectangle width="150" height="30" as="alternateBounds" />
          </mxGeometry>
        </mxCell>
        <mxCell id="76QTgGwpYq9l9VvrMHTE-88" value="" style="shape=tableRow;horizontal=0;startSize=0;swimlaneHead=0;swimlaneBody=0;fillColor=none;collapsible=0;dropTarget=0;points=[[0,0.5],[1,0.5]];portConstraint=eastwest;top=0;left=0;right=0;bottom=0;" vertex="1" parent="76QTgGwpYq9l9VvrMHTE-84">
          <mxGeometry y="60" width="180" height="30" as="geometry" />
        </mxCell>
        <mxCell id="76QTgGwpYq9l9VvrMHTE-89" value="" style="shape=partialRectangle;connectable=0;fillColor=none;top=0;left=0;bottom=0;right=0;editable=1;overflow=hidden;whiteSpace=wrap;html=1;" vertex="1" parent="76QTgGwpYq9l9VvrMHTE-88">
          <mxGeometry width="30" height="30" as="geometry">
            <mxRectangle width="30" height="30" as="alternateBounds" />
          </mxGeometry>
        </mxCell>
        <mxCell id="76QTgGwpYq9l9VvrMHTE-90" value="Name" style="shape=partialRectangle;connectable=0;fillColor=none;top=0;left=0;bottom=0;right=0;align=left;spacingLeft=6;overflow=hidden;whiteSpace=wrap;html=1;" vertex="1" parent="76QTgGwpYq9l9VvrMHTE-88">
          <mxGeometry x="30" width="150" height="30" as="geometry">
            <mxRectangle width="150" height="30" as="alternateBounds" />
          </mxGeometry>
        </mxCell>
        <mxCell id="76QTgGwpYq9l9VvrMHTE-97" value="Grade" style="ellipse;whiteSpace=wrap;html=1;" vertex="1" parent="1">
          <mxGeometry x="10" y="290" width="90" height="60" as="geometry" />
        </mxCell>
        <mxCell id="76QTgGwpYq9l9VvrMHTE-100" style="edgeStyle=orthogonalEdgeStyle;rounded=0;orthogonalLoop=1;jettySize=auto;html=1;entryX=0;entryY=0.5;entryDx=0;entryDy=0;startArrow=ERzeroToMany;startFill=0;endArrow=ERone;endFill=0;" edge="1" parent="1" source="76QTgGwpYq9l9VvrMHTE-78" target="76QTgGwpYq9l9VvrMHTE-85">
          <mxGeometry relative="1" as="geometry" />
        </mxCell>
        <mxCell id="76QTgGwpYq9l9VvrMHTE-109" style="edgeStyle=orthogonalEdgeStyle;rounded=0;orthogonalLoop=1;jettySize=auto;html=1;entryX=0;entryY=0.5;entryDx=0;entryDy=0;startArrow=ERone;startFill=0;endArrow=ERzeroToMany;endFill=0;" edge="1" parent="1" source="76QTgGwpYq9l9VvrMHTE-59" target="76QTgGwpYq9l9VvrMHTE-101">
          <mxGeometry relative="1" as="geometry" />
        </mxCell>
        <mxCell id="76QTgGwpYq9l9VvrMHTE-110" value="" style="endArrow=none;html=1;rounded=0;" edge="1" parent="1">
          <mxGeometry width="50" height="50" relative="1" as="geometry">
            <mxPoint y="998" as="sourcePoint" />
            <mxPoint x="821.5238444010416" y="998" as="targetPoint" />
          </mxGeometry>
        </mxCell>
        <mxCell id="76QTgGwpYq9l9VvrMHTE-138" value="" style="edgeStyle=orthogonalEdgeStyle;rounded=0;orthogonalLoop=1;jettySize=auto;html=1;" edge="1" parent="1" source="76QTgGwpYq9l9VvrMHTE-111" target="76QTgGwpYq9l9VvrMHTE-137">
          <mxGeometry relative="1" as="geometry" />
        </mxCell>
        <mxCell id="76QTgGwpYq9l9VvrMHTE-111" value="1" style="childLayout=tableLayout;recursiveResize=0;strokeColor=#98bf21;fillColor=#A7C942;shadow=1;" vertex="1" parent="1">
          <mxGeometry x="50" y="1110" width="187" height="157" as="geometry" />
        </mxCell>
        <mxCell id="76QTgGwpYq9l9VvrMHTE-112" style="shape=tableRow;horizontal=0;startSize=0;swimlaneHead=0;swimlaneBody=0;top=0;left=0;bottom=0;right=0;dropTarget=0;collapsible=0;recursiveResize=0;expand=0;fontStyle=0;strokeColor=inherit;fillColor=#ffffff;" vertex="1" parent="76QTgGwpYq9l9VvrMHTE-111">
          <mxGeometry width="187" height="30" as="geometry" />
        </mxCell>
        <mxCell id="76QTgGwpYq9l9VvrMHTE-113" value="&lt;u&gt;StudentID&lt;/u&gt;" style="connectable=0;recursiveResize=0;strokeColor=inherit;fillColor=#A7C942;align=center;fontStyle=1;fontColor=#FFFFFF;html=1;" vertex="1" parent="76QTgGwpYq9l9VvrMHTE-112">
          <mxGeometry width="93" height="30" as="geometry">
            <mxRectangle width="93" height="30" as="alternateBounds" />
          </mxGeometry>
        </mxCell>
        <mxCell id="76QTgGwpYq9l9VvrMHTE-114" value="BirthDate" style="connectable=0;recursiveResize=0;strokeColor=inherit;fillColor=#A7C942;align=center;fontStyle=1;fontColor=#FFFFFF;html=1;" vertex="1" parent="76QTgGwpYq9l9VvrMHTE-112">
          <mxGeometry x="93" width="94" height="30" as="geometry">
            <mxRectangle width="94" height="30" as="alternateBounds" />
          </mxGeometry>
        </mxCell>
        <mxCell id="76QTgGwpYq9l9VvrMHTE-116" value="" style="shape=tableRow;horizontal=0;startSize=0;swimlaneHead=0;swimlaneBody=0;top=0;left=0;bottom=0;right=0;dropTarget=0;collapsible=0;recursiveResize=0;expand=0;fontStyle=0;strokeColor=inherit;fillColor=#ffffff;" vertex="1" parent="76QTgGwpYq9l9VvrMHTE-111">
          <mxGeometry y="30" width="187" height="32" as="geometry" />
        </mxCell>
        <mxCell id="76QTgGwpYq9l9VvrMHTE-117" value="1" style="connectable=0;recursiveResize=0;strokeColor=inherit;fillColor=inherit;align=center;whiteSpace=wrap;html=1;" vertex="1" parent="76QTgGwpYq9l9VvrMHTE-116">
          <mxGeometry width="93" height="32" as="geometry">
            <mxRectangle width="93" height="32" as="alternateBounds" />
          </mxGeometry>
        </mxCell>
        <mxCell id="76QTgGwpYq9l9VvrMHTE-118" value="Value 2" style="connectable=0;recursiveResize=0;strokeColor=inherit;fillColor=inherit;align=center;whiteSpace=wrap;html=1;" vertex="1" parent="76QTgGwpYq9l9VvrMHTE-116">
          <mxGeometry x="93" width="94" height="32" as="geometry">
            <mxRectangle width="94" height="32" as="alternateBounds" />
          </mxGeometry>
        </mxCell>
        <mxCell id="76QTgGwpYq9l9VvrMHTE-120" value="" style="shape=tableRow;horizontal=0;startSize=0;swimlaneHead=0;swimlaneBody=0;top=0;left=0;bottom=0;right=0;dropTarget=0;collapsible=0;recursiveResize=0;expand=0;fontStyle=1;strokeColor=inherit;fillColor=#EAF2D3;" vertex="1" parent="76QTgGwpYq9l9VvrMHTE-111">
          <mxGeometry y="62" width="187" height="31" as="geometry" />
        </mxCell>
        <mxCell id="76QTgGwpYq9l9VvrMHTE-121" value="2" style="connectable=0;recursiveResize=0;strokeColor=inherit;fillColor=inherit;whiteSpace=wrap;html=1;" vertex="1" parent="76QTgGwpYq9l9VvrMHTE-120">
          <mxGeometry width="93" height="31" as="geometry">
            <mxRectangle width="93" height="31" as="alternateBounds" />
          </mxGeometry>
        </mxCell>
        <mxCell id="76QTgGwpYq9l9VvrMHTE-122" value="Value 5" style="connectable=0;recursiveResize=0;strokeColor=inherit;fillColor=inherit;whiteSpace=wrap;html=1;" vertex="1" parent="76QTgGwpYq9l9VvrMHTE-120">
          <mxGeometry x="93" width="94" height="31" as="geometry">
            <mxRectangle width="94" height="31" as="alternateBounds" />
          </mxGeometry>
        </mxCell>
        <mxCell id="76QTgGwpYq9l9VvrMHTE-124" value="" style="shape=tableRow;horizontal=0;startSize=0;swimlaneHead=0;swimlaneBody=0;top=0;left=0;bottom=0;right=0;dropTarget=0;collapsible=0;recursiveResize=0;expand=0;fontStyle=0;strokeColor=inherit;fillColor=#ffffff;" vertex="1" parent="76QTgGwpYq9l9VvrMHTE-111">
          <mxGeometry y="93" width="187" height="33" as="geometry" />
        </mxCell>
        <mxCell id="76QTgGwpYq9l9VvrMHTE-125" value="3" style="connectable=0;recursiveResize=0;strokeColor=inherit;fillColor=inherit;fontStyle=0;align=center;whiteSpace=wrap;html=1;" vertex="1" parent="76QTgGwpYq9l9VvrMHTE-124">
          <mxGeometry width="93" height="33" as="geometry">
            <mxRectangle width="93" height="33" as="alternateBounds" />
          </mxGeometry>
        </mxCell>
        <mxCell id="76QTgGwpYq9l9VvrMHTE-126" value="Value 8" style="connectable=0;recursiveResize=0;strokeColor=inherit;fillColor=inherit;fontStyle=0;align=center;whiteSpace=wrap;html=1;" vertex="1" parent="76QTgGwpYq9l9VvrMHTE-124">
          <mxGeometry x="93" width="94" height="33" as="geometry">
            <mxRectangle width="94" height="33" as="alternateBounds" />
          </mxGeometry>
        </mxCell>
        <mxCell id="76QTgGwpYq9l9VvrMHTE-128" value="" style="shape=tableRow;horizontal=0;startSize=0;swimlaneHead=0;swimlaneBody=0;top=0;left=0;bottom=0;right=0;dropTarget=0;collapsible=0;recursiveResize=0;expand=0;fontStyle=1;strokeColor=inherit;fillColor=#EAF2D3;" vertex="1" parent="76QTgGwpYq9l9VvrMHTE-111">
          <mxGeometry y="126" width="187" height="31" as="geometry" />
        </mxCell>
        <mxCell id="76QTgGwpYq9l9VvrMHTE-129" value="4" style="connectable=0;recursiveResize=0;strokeColor=inherit;fillColor=inherit;whiteSpace=wrap;html=1;" vertex="1" parent="76QTgGwpYq9l9VvrMHTE-128">
          <mxGeometry width="93" height="31" as="geometry">
            <mxRectangle width="93" height="31" as="alternateBounds" />
          </mxGeometry>
        </mxCell>
        <mxCell id="76QTgGwpYq9l9VvrMHTE-130" value="Value 11" style="connectable=0;recursiveResize=0;strokeColor=inherit;fillColor=inherit;whiteSpace=wrap;html=1;" vertex="1" parent="76QTgGwpYq9l9VvrMHTE-128">
          <mxGeometry x="93" width="94" height="31" as="geometry">
            <mxRectangle width="94" height="31" as="alternateBounds" />
          </mxGeometry>
        </mxCell>
        <mxCell id="76QTgGwpYq9l9VvrMHTE-132" value="Tables" style="text;html=1;align=center;verticalAlign=middle;whiteSpace=wrap;rounded=0;" vertex="1" parent="1">
          <mxGeometry y="999" width="60" height="30" as="geometry" />
        </mxCell>
        <mxCell id="76QTgGwpYq9l9VvrMHTE-137" value="Students" style="whiteSpace=wrap;html=1;fillColor=#A7C942;strokeColor=#98bf21;shadow=1;" vertex="1" parent="1">
          <mxGeometry x="83.5" y="1050" width="120" height="60" as="geometry" />
        </mxCell>
        <mxCell id="76QTgGwpYq9l9VvrMHTE-139" value="" style="edgeStyle=orthogonalEdgeStyle;rounded=0;orthogonalLoop=1;jettySize=auto;html=1;" edge="1" parent="1" source="76QTgGwpYq9l9VvrMHTE-140" target="76QTgGwpYq9l9VvrMHTE-161">
          <mxGeometry relative="1" as="geometry" />
        </mxCell>
        <mxCell id="76QTgGwpYq9l9VvrMHTE-140" value="1" style="childLayout=tableLayout;recursiveResize=0;strokeColor=#98bf21;fillColor=#A7C942;shadow=1;" vertex="1" parent="1">
          <mxGeometry x="430" y="1110" width="187" height="157" as="geometry" />
        </mxCell>
        <mxCell id="76QTgGwpYq9l9VvrMHTE-141" style="shape=tableRow;horizontal=0;startSize=0;swimlaneHead=0;swimlaneBody=0;top=0;left=0;bottom=0;right=0;dropTarget=0;collapsible=0;recursiveResize=0;expand=0;fontStyle=0;strokeColor=inherit;fillColor=#ffffff;" vertex="1" parent="76QTgGwpYq9l9VvrMHTE-140">
          <mxGeometry width="187" height="30" as="geometry" />
        </mxCell>
        <mxCell id="76QTgGwpYq9l9VvrMHTE-142" value="&lt;u&gt;CourseID&lt;/u&gt;" style="connectable=0;recursiveResize=0;strokeColor=inherit;fillColor=#A7C942;align=center;fontStyle=1;fontColor=#FFFFFF;html=1;" vertex="1" parent="76QTgGwpYq9l9VvrMHTE-141">
          <mxGeometry width="93" height="30" as="geometry">
            <mxRectangle width="93" height="30" as="alternateBounds" />
          </mxGeometry>
        </mxCell>
        <mxCell id="76QTgGwpYq9l9VvrMHTE-143" value="Name" style="connectable=0;recursiveResize=0;strokeColor=inherit;fillColor=#A7C942;align=center;fontStyle=1;fontColor=#FFFFFF;html=1;" vertex="1" parent="76QTgGwpYq9l9VvrMHTE-141">
          <mxGeometry x="93" width="94" height="30" as="geometry">
            <mxRectangle width="94" height="30" as="alternateBounds" />
          </mxGeometry>
        </mxCell>
        <mxCell id="76QTgGwpYq9l9VvrMHTE-145" value="" style="shape=tableRow;horizontal=0;startSize=0;swimlaneHead=0;swimlaneBody=0;top=0;left=0;bottom=0;right=0;dropTarget=0;collapsible=0;recursiveResize=0;expand=0;fontStyle=0;strokeColor=inherit;fillColor=#ffffff;" vertex="1" parent="76QTgGwpYq9l9VvrMHTE-140">
          <mxGeometry y="30" width="187" height="32" as="geometry" />
        </mxCell>
        <mxCell id="76QTgGwpYq9l9VvrMHTE-146" value="1" style="connectable=0;recursiveResize=0;strokeColor=inherit;fillColor=inherit;align=center;whiteSpace=wrap;html=1;" vertex="1" parent="76QTgGwpYq9l9VvrMHTE-145">
          <mxGeometry width="93" height="32" as="geometry">
            <mxRectangle width="93" height="32" as="alternateBounds" />
          </mxGeometry>
        </mxCell>
        <mxCell id="76QTgGwpYq9l9VvrMHTE-147" value="Value 2" style="connectable=0;recursiveResize=0;strokeColor=inherit;fillColor=inherit;align=center;whiteSpace=wrap;html=1;" vertex="1" parent="76QTgGwpYq9l9VvrMHTE-145">
          <mxGeometry x="93" width="94" height="32" as="geometry">
            <mxRectangle width="94" height="32" as="alternateBounds" />
          </mxGeometry>
        </mxCell>
        <mxCell id="76QTgGwpYq9l9VvrMHTE-149" value="" style="shape=tableRow;horizontal=0;startSize=0;swimlaneHead=0;swimlaneBody=0;top=0;left=0;bottom=0;right=0;dropTarget=0;collapsible=0;recursiveResize=0;expand=0;fontStyle=1;strokeColor=inherit;fillColor=#EAF2D3;" vertex="1" parent="76QTgGwpYq9l9VvrMHTE-140">
          <mxGeometry y="62" width="187" height="31" as="geometry" />
        </mxCell>
        <mxCell id="76QTgGwpYq9l9VvrMHTE-150" value="2" style="connectable=0;recursiveResize=0;strokeColor=inherit;fillColor=inherit;whiteSpace=wrap;html=1;" vertex="1" parent="76QTgGwpYq9l9VvrMHTE-149">
          <mxGeometry width="93" height="31" as="geometry">
            <mxRectangle width="93" height="31" as="alternateBounds" />
          </mxGeometry>
        </mxCell>
        <mxCell id="76QTgGwpYq9l9VvrMHTE-151" value="Value 5" style="connectable=0;recursiveResize=0;strokeColor=inherit;fillColor=inherit;whiteSpace=wrap;html=1;" vertex="1" parent="76QTgGwpYq9l9VvrMHTE-149">
          <mxGeometry x="93" width="94" height="31" as="geometry">
            <mxRectangle width="94" height="31" as="alternateBounds" />
          </mxGeometry>
        </mxCell>
        <mxCell id="76QTgGwpYq9l9VvrMHTE-153" value="" style="shape=tableRow;horizontal=0;startSize=0;swimlaneHead=0;swimlaneBody=0;top=0;left=0;bottom=0;right=0;dropTarget=0;collapsible=0;recursiveResize=0;expand=0;fontStyle=0;strokeColor=inherit;fillColor=#ffffff;" vertex="1" parent="76QTgGwpYq9l9VvrMHTE-140">
          <mxGeometry y="93" width="187" height="33" as="geometry" />
        </mxCell>
        <mxCell id="76QTgGwpYq9l9VvrMHTE-154" value="3" style="connectable=0;recursiveResize=0;strokeColor=inherit;fillColor=inherit;fontStyle=0;align=center;whiteSpace=wrap;html=1;" vertex="1" parent="76QTgGwpYq9l9VvrMHTE-153">
          <mxGeometry width="93" height="33" as="geometry">
            <mxRectangle width="93" height="33" as="alternateBounds" />
          </mxGeometry>
        </mxCell>
        <mxCell id="76QTgGwpYq9l9VvrMHTE-155" value="Value 8" style="connectable=0;recursiveResize=0;strokeColor=inherit;fillColor=inherit;fontStyle=0;align=center;whiteSpace=wrap;html=1;" vertex="1" parent="76QTgGwpYq9l9VvrMHTE-153">
          <mxGeometry x="93" width="94" height="33" as="geometry">
            <mxRectangle width="94" height="33" as="alternateBounds" />
          </mxGeometry>
        </mxCell>
        <mxCell id="76QTgGwpYq9l9VvrMHTE-157" value="" style="shape=tableRow;horizontal=0;startSize=0;swimlaneHead=0;swimlaneBody=0;top=0;left=0;bottom=0;right=0;dropTarget=0;collapsible=0;recursiveResize=0;expand=0;fontStyle=1;strokeColor=inherit;fillColor=#EAF2D3;" vertex="1" parent="76QTgGwpYq9l9VvrMHTE-140">
          <mxGeometry y="126" width="187" height="31" as="geometry" />
        </mxCell>
        <mxCell id="76QTgGwpYq9l9VvrMHTE-158" value="4" style="connectable=0;recursiveResize=0;strokeColor=inherit;fillColor=inherit;whiteSpace=wrap;html=1;" vertex="1" parent="76QTgGwpYq9l9VvrMHTE-157">
          <mxGeometry width="93" height="31" as="geometry">
            <mxRectangle width="93" height="31" as="alternateBounds" />
          </mxGeometry>
        </mxCell>
        <mxCell id="76QTgGwpYq9l9VvrMHTE-159" value="Value 11" style="connectable=0;recursiveResize=0;strokeColor=inherit;fillColor=inherit;whiteSpace=wrap;html=1;" vertex="1" parent="76QTgGwpYq9l9VvrMHTE-157">
          <mxGeometry x="93" width="94" height="31" as="geometry">
            <mxRectangle width="94" height="31" as="alternateBounds" />
          </mxGeometry>
        </mxCell>
        <mxCell id="76QTgGwpYq9l9VvrMHTE-161" value="Courses" style="whiteSpace=wrap;html=1;fillColor=#A7C942;strokeColor=#98bf21;shadow=1;" vertex="1" parent="1">
          <mxGeometry x="463.5" y="1050" width="120" height="60" as="geometry" />
        </mxCell>
        <mxCell id="76QTgGwpYq9l9VvrMHTE-163" value="Assets" style="childLayout=tableLayout;recursiveResize=0;strokeColor=#98bf21;fillColor=#A7C942;shadow=1;" vertex="1" parent="1">
          <mxGeometry x="150" y="1400" width="466" height="157" as="geometry" />
        </mxCell>
        <mxCell id="76QTgGwpYq9l9VvrMHTE-164" style="shape=tableRow;horizontal=0;startSize=0;swimlaneHead=0;swimlaneBody=0;top=0;left=0;bottom=0;right=0;dropTarget=0;collapsible=0;recursiveResize=0;expand=0;fontStyle=0;strokeColor=inherit;fillColor=#ffffff;" vertex="1" parent="76QTgGwpYq9l9VvrMHTE-163">
          <mxGeometry width="466" height="30" as="geometry" />
        </mxCell>
        <mxCell id="76QTgGwpYq9l9VvrMHTE-165" value="&lt;u style=&quot;font-weight: 400; text-wrap-mode: wrap;&quot;&gt;ID&lt;/u&gt;" style="connectable=0;recursiveResize=0;strokeColor=inherit;fillColor=#A7C942;align=center;fontStyle=1;fontColor=#FFFFFF;html=1;" vertex="1" parent="76QTgGwpYq9l9VvrMHTE-164">
          <mxGeometry width="93" height="30" as="geometry">
            <mxRectangle width="93" height="30" as="alternateBounds" />
          </mxGeometry>
        </mxCell>
        <mxCell id="76QTgGwpYq9l9VvrMHTE-166" value="StudentID (FK)" style="connectable=0;recursiveResize=0;strokeColor=inherit;fillColor=#A7C942;align=center;fontStyle=1;fontColor=#FFFFFF;html=1;" vertex="1" parent="76QTgGwpYq9l9VvrMHTE-164">
          <mxGeometry x="93" width="94" height="30" as="geometry">
            <mxRectangle width="94" height="30" as="alternateBounds" />
          </mxGeometry>
        </mxCell>
        <mxCell id="76QTgGwpYq9l9VvrMHTE-167" value="CourseID (FK)" style="connectable=0;recursiveResize=0;strokeColor=inherit;fillColor=#A7C942;align=center;fontStyle=1;fontColor=#FFFFFF;html=1;" vertex="1" parent="76QTgGwpYq9l9VvrMHTE-164">
          <mxGeometry x="187" width="93" height="30" as="geometry">
            <mxRectangle width="93" height="30" as="alternateBounds" />
          </mxGeometry>
        </mxCell>
        <mxCell id="76QTgGwpYq9l9VvrMHTE-212" value="Grade" style="connectable=0;recursiveResize=0;strokeColor=inherit;fillColor=#A7C942;align=center;fontStyle=1;fontColor=#FFFFFF;html=1;" vertex="1" parent="76QTgGwpYq9l9VvrMHTE-164">
          <mxGeometry x="280" width="93" height="30" as="geometry">
            <mxRectangle width="93" height="30" as="alternateBounds" />
          </mxGeometry>
        </mxCell>
        <mxCell id="76QTgGwpYq9l9VvrMHTE-217" value="TeacherID (FK)" style="connectable=0;recursiveResize=0;strokeColor=inherit;fillColor=#A7C942;align=center;fontStyle=1;fontColor=#FFFFFF;html=1;" vertex="1" parent="76QTgGwpYq9l9VvrMHTE-164">
          <mxGeometry x="373" width="93" height="30" as="geometry">
            <mxRectangle width="93" height="30" as="alternateBounds" />
          </mxGeometry>
        </mxCell>
        <mxCell id="76QTgGwpYq9l9VvrMHTE-168" value="" style="shape=tableRow;horizontal=0;startSize=0;swimlaneHead=0;swimlaneBody=0;top=0;left=0;bottom=0;right=0;dropTarget=0;collapsible=0;recursiveResize=0;expand=0;fontStyle=0;strokeColor=inherit;fillColor=#ffffff;" vertex="1" parent="76QTgGwpYq9l9VvrMHTE-163">
          <mxGeometry y="30" width="466" height="32" as="geometry" />
        </mxCell>
        <mxCell id="76QTgGwpYq9l9VvrMHTE-169" value="1" style="connectable=0;recursiveResize=0;strokeColor=inherit;fillColor=inherit;align=center;whiteSpace=wrap;html=1;" vertex="1" parent="76QTgGwpYq9l9VvrMHTE-168">
          <mxGeometry width="93" height="32" as="geometry">
            <mxRectangle width="93" height="32" as="alternateBounds" />
          </mxGeometry>
        </mxCell>
        <mxCell id="76QTgGwpYq9l9VvrMHTE-170" value="1" style="connectable=0;recursiveResize=0;strokeColor=inherit;fillColor=inherit;align=center;whiteSpace=wrap;html=1;" vertex="1" parent="76QTgGwpYq9l9VvrMHTE-168">
          <mxGeometry x="93" width="94" height="32" as="geometry">
            <mxRectangle width="94" height="32" as="alternateBounds" />
          </mxGeometry>
        </mxCell>
        <mxCell id="76QTgGwpYq9l9VvrMHTE-171" value="1" style="connectable=0;recursiveResize=0;strokeColor=inherit;fillColor=inherit;align=center;whiteSpace=wrap;html=1;" vertex="1" parent="76QTgGwpYq9l9VvrMHTE-168">
          <mxGeometry x="187" width="93" height="32" as="geometry">
            <mxRectangle width="93" height="32" as="alternateBounds" />
          </mxGeometry>
        </mxCell>
        <mxCell id="76QTgGwpYq9l9VvrMHTE-213" value="10" style="connectable=0;recursiveResize=0;strokeColor=inherit;fillColor=inherit;align=center;whiteSpace=wrap;html=1;" vertex="1" parent="76QTgGwpYq9l9VvrMHTE-168">
          <mxGeometry x="280" width="93" height="32" as="geometry">
            <mxRectangle width="93" height="32" as="alternateBounds" />
          </mxGeometry>
        </mxCell>
        <mxCell id="76QTgGwpYq9l9VvrMHTE-218" value="1" style="connectable=0;recursiveResize=0;strokeColor=inherit;fillColor=inherit;align=center;whiteSpace=wrap;html=1;" vertex="1" parent="76QTgGwpYq9l9VvrMHTE-168">
          <mxGeometry x="373" width="93" height="32" as="geometry">
            <mxRectangle width="93" height="32" as="alternateBounds" />
          </mxGeometry>
        </mxCell>
        <mxCell id="76QTgGwpYq9l9VvrMHTE-172" value="" style="shape=tableRow;horizontal=0;startSize=0;swimlaneHead=0;swimlaneBody=0;top=0;left=0;bottom=0;right=0;dropTarget=0;collapsible=0;recursiveResize=0;expand=0;fontStyle=1;strokeColor=inherit;fillColor=#EAF2D3;" vertex="1" parent="76QTgGwpYq9l9VvrMHTE-163">
          <mxGeometry y="62" width="466" height="31" as="geometry" />
        </mxCell>
        <mxCell id="76QTgGwpYq9l9VvrMHTE-173" value="2" style="connectable=0;recursiveResize=0;strokeColor=inherit;fillColor=inherit;whiteSpace=wrap;html=1;" vertex="1" parent="76QTgGwpYq9l9VvrMHTE-172">
          <mxGeometry width="93" height="31" as="geometry">
            <mxRectangle width="93" height="31" as="alternateBounds" />
          </mxGeometry>
        </mxCell>
        <mxCell id="76QTgGwpYq9l9VvrMHTE-174" value="1" style="connectable=0;recursiveResize=0;strokeColor=inherit;fillColor=inherit;whiteSpace=wrap;html=1;" vertex="1" parent="76QTgGwpYq9l9VvrMHTE-172">
          <mxGeometry x="93" width="94" height="31" as="geometry">
            <mxRectangle width="94" height="31" as="alternateBounds" />
          </mxGeometry>
        </mxCell>
        <mxCell id="76QTgGwpYq9l9VvrMHTE-175" value="2" style="connectable=0;recursiveResize=0;strokeColor=inherit;fillColor=inherit;whiteSpace=wrap;html=1;" vertex="1" parent="76QTgGwpYq9l9VvrMHTE-172">
          <mxGeometry x="187" width="93" height="31" as="geometry">
            <mxRectangle width="93" height="31" as="alternateBounds" />
          </mxGeometry>
        </mxCell>
        <mxCell id="76QTgGwpYq9l9VvrMHTE-214" value="50" style="connectable=0;recursiveResize=0;strokeColor=inherit;fillColor=inherit;whiteSpace=wrap;html=1;" vertex="1" parent="76QTgGwpYq9l9VvrMHTE-172">
          <mxGeometry x="280" width="93" height="31" as="geometry">
            <mxRectangle width="93" height="31" as="alternateBounds" />
          </mxGeometry>
        </mxCell>
        <mxCell id="76QTgGwpYq9l9VvrMHTE-219" value="2" style="connectable=0;recursiveResize=0;strokeColor=inherit;fillColor=inherit;whiteSpace=wrap;html=1;" vertex="1" parent="76QTgGwpYq9l9VvrMHTE-172">
          <mxGeometry x="373" width="93" height="31" as="geometry">
            <mxRectangle width="93" height="31" as="alternateBounds" />
          </mxGeometry>
        </mxCell>
        <mxCell id="76QTgGwpYq9l9VvrMHTE-176" value="" style="shape=tableRow;horizontal=0;startSize=0;swimlaneHead=0;swimlaneBody=0;top=0;left=0;bottom=0;right=0;dropTarget=0;collapsible=0;recursiveResize=0;expand=0;fontStyle=0;strokeColor=inherit;fillColor=#ffffff;" vertex="1" parent="76QTgGwpYq9l9VvrMHTE-163">
          <mxGeometry y="93" width="466" height="33" as="geometry" />
        </mxCell>
        <mxCell id="76QTgGwpYq9l9VvrMHTE-177" value="3" style="connectable=0;recursiveResize=0;strokeColor=inherit;fillColor=inherit;fontStyle=0;align=center;whiteSpace=wrap;html=1;" vertex="1" parent="76QTgGwpYq9l9VvrMHTE-176">
          <mxGeometry width="93" height="33" as="geometry">
            <mxRectangle width="93" height="33" as="alternateBounds" />
          </mxGeometry>
        </mxCell>
        <mxCell id="76QTgGwpYq9l9VvrMHTE-178" value="4" style="connectable=0;recursiveResize=0;strokeColor=inherit;fillColor=inherit;fontStyle=0;align=center;whiteSpace=wrap;html=1;" vertex="1" parent="76QTgGwpYq9l9VvrMHTE-176">
          <mxGeometry x="93" width="94" height="33" as="geometry">
            <mxRectangle width="94" height="33" as="alternateBounds" />
          </mxGeometry>
        </mxCell>
        <mxCell id="76QTgGwpYq9l9VvrMHTE-179" value="4" style="connectable=0;recursiveResize=0;strokeColor=inherit;fillColor=inherit;fontStyle=0;align=center;whiteSpace=wrap;html=1;" vertex="1" parent="76QTgGwpYq9l9VvrMHTE-176">
          <mxGeometry x="187" width="93" height="33" as="geometry">
            <mxRectangle width="93" height="33" as="alternateBounds" />
          </mxGeometry>
        </mxCell>
        <mxCell id="76QTgGwpYq9l9VvrMHTE-215" value="100" style="connectable=0;recursiveResize=0;strokeColor=inherit;fillColor=inherit;fontStyle=0;align=center;whiteSpace=wrap;html=1;" vertex="1" parent="76QTgGwpYq9l9VvrMHTE-176">
          <mxGeometry x="280" width="93" height="33" as="geometry">
            <mxRectangle width="93" height="33" as="alternateBounds" />
          </mxGeometry>
        </mxCell>
        <mxCell id="76QTgGwpYq9l9VvrMHTE-220" value="3" style="connectable=0;recursiveResize=0;strokeColor=inherit;fillColor=inherit;fontStyle=0;align=center;whiteSpace=wrap;html=1;" vertex="1" parent="76QTgGwpYq9l9VvrMHTE-176">
          <mxGeometry x="373" width="93" height="33" as="geometry">
            <mxRectangle width="93" height="33" as="alternateBounds" />
          </mxGeometry>
        </mxCell>
        <mxCell id="76QTgGwpYq9l9VvrMHTE-180" value="" style="shape=tableRow;horizontal=0;startSize=0;swimlaneHead=0;swimlaneBody=0;top=0;left=0;bottom=0;right=0;dropTarget=0;collapsible=0;recursiveResize=0;expand=0;fontStyle=1;strokeColor=inherit;fillColor=#EAF2D3;" vertex="1" parent="76QTgGwpYq9l9VvrMHTE-163">
          <mxGeometry y="126" width="466" height="31" as="geometry" />
        </mxCell>
        <mxCell id="76QTgGwpYq9l9VvrMHTE-181" value="4" style="connectable=0;recursiveResize=0;strokeColor=inherit;fillColor=inherit;whiteSpace=wrap;html=1;" vertex="1" parent="76QTgGwpYq9l9VvrMHTE-180">
          <mxGeometry width="93" height="31" as="geometry">
            <mxRectangle width="93" height="31" as="alternateBounds" />
          </mxGeometry>
        </mxCell>
        <mxCell id="76QTgGwpYq9l9VvrMHTE-182" value="3" style="connectable=0;recursiveResize=0;strokeColor=inherit;fillColor=inherit;whiteSpace=wrap;html=1;" vertex="1" parent="76QTgGwpYq9l9VvrMHTE-180">
          <mxGeometry x="93" width="94" height="31" as="geometry">
            <mxRectangle width="94" height="31" as="alternateBounds" />
          </mxGeometry>
        </mxCell>
        <mxCell id="76QTgGwpYq9l9VvrMHTE-183" value="1" style="connectable=0;recursiveResize=0;strokeColor=inherit;fillColor=inherit;whiteSpace=wrap;html=1;" vertex="1" parent="76QTgGwpYq9l9VvrMHTE-180">
          <mxGeometry x="187" width="93" height="31" as="geometry">
            <mxRectangle width="93" height="31" as="alternateBounds" />
          </mxGeometry>
        </mxCell>
        <mxCell id="76QTgGwpYq9l9VvrMHTE-216" value="Null" style="connectable=0;recursiveResize=0;strokeColor=inherit;fillColor=inherit;whiteSpace=wrap;html=1;" vertex="1" parent="76QTgGwpYq9l9VvrMHTE-180">
          <mxGeometry x="280" width="93" height="31" as="geometry">
            <mxRectangle width="93" height="31" as="alternateBounds" />
          </mxGeometry>
        </mxCell>
        <mxCell id="76QTgGwpYq9l9VvrMHTE-221" value="1" style="connectable=0;recursiveResize=0;strokeColor=inherit;fillColor=inherit;whiteSpace=wrap;html=1;" vertex="1" parent="76QTgGwpYq9l9VvrMHTE-180">
          <mxGeometry x="373" width="93" height="31" as="geometry">
            <mxRectangle width="93" height="31" as="alternateBounds" />
          </mxGeometry>
        </mxCell>
        <mxCell id="76QTgGwpYq9l9VvrMHTE-184" value="Enrollments" style="whiteSpace=wrap;html=1;fillColor=#A7C942;strokeColor=#98bf21;shadow=1;" vertex="1" parent="1">
          <mxGeometry x="323" y="1340" width="120" height="60" as="geometry" />
        </mxCell>
        <mxCell id="76QTgGwpYq9l9VvrMHTE-185" value="" style="edgeStyle=orthogonalEdgeStyle;rounded=0;orthogonalLoop=1;jettySize=auto;html=1;" edge="1" parent="1" source="76QTgGwpYq9l9VvrMHTE-186" target="76QTgGwpYq9l9VvrMHTE-207">
          <mxGeometry relative="1" as="geometry" />
        </mxCell>
        <mxCell id="76QTgGwpYq9l9VvrMHTE-186" value="Assets" style="childLayout=tableLayout;recursiveResize=0;strokeColor=#98bf21;fillColor=#A7C942;shadow=1;" vertex="1" parent="1">
          <mxGeometry x="230" y="1670" width="187" height="157" as="geometry" />
        </mxCell>
        <mxCell id="76QTgGwpYq9l9VvrMHTE-187" style="shape=tableRow;horizontal=0;startSize=0;swimlaneHead=0;swimlaneBody=0;top=0;left=0;bottom=0;right=0;dropTarget=0;collapsible=0;recursiveResize=0;expand=0;fontStyle=0;strokeColor=inherit;fillColor=#ffffff;" vertex="1" parent="76QTgGwpYq9l9VvrMHTE-186">
          <mxGeometry width="187" height="30" as="geometry" />
        </mxCell>
        <mxCell id="76QTgGwpYq9l9VvrMHTE-188" value="&lt;u&gt;TeacherID&lt;/u&gt;" style="connectable=0;recursiveResize=0;strokeColor=inherit;fillColor=#A7C942;align=center;fontStyle=1;fontColor=#FFFFFF;html=1;" vertex="1" parent="76QTgGwpYq9l9VvrMHTE-187">
          <mxGeometry width="93" height="30" as="geometry">
            <mxRectangle width="93" height="30" as="alternateBounds" />
          </mxGeometry>
        </mxCell>
        <mxCell id="76QTgGwpYq9l9VvrMHTE-189" value="Name" style="connectable=0;recursiveResize=0;strokeColor=inherit;fillColor=#A7C942;align=center;fontStyle=1;fontColor=#FFFFFF;html=1;" vertex="1" parent="76QTgGwpYq9l9VvrMHTE-187">
          <mxGeometry x="93" width="94" height="30" as="geometry">
            <mxRectangle width="94" height="30" as="alternateBounds" />
          </mxGeometry>
        </mxCell>
        <mxCell id="76QTgGwpYq9l9VvrMHTE-191" value="" style="shape=tableRow;horizontal=0;startSize=0;swimlaneHead=0;swimlaneBody=0;top=0;left=0;bottom=0;right=0;dropTarget=0;collapsible=0;recursiveResize=0;expand=0;fontStyle=0;strokeColor=inherit;fillColor=#ffffff;" vertex="1" parent="76QTgGwpYq9l9VvrMHTE-186">
          <mxGeometry y="30" width="187" height="32" as="geometry" />
        </mxCell>
        <mxCell id="76QTgGwpYq9l9VvrMHTE-192" value="1" style="connectable=0;recursiveResize=0;strokeColor=inherit;fillColor=inherit;align=center;whiteSpace=wrap;html=1;" vertex="1" parent="76QTgGwpYq9l9VvrMHTE-191">
          <mxGeometry width="93" height="32" as="geometry">
            <mxRectangle width="93" height="32" as="alternateBounds" />
          </mxGeometry>
        </mxCell>
        <mxCell id="76QTgGwpYq9l9VvrMHTE-193" value="Value 2" style="connectable=0;recursiveResize=0;strokeColor=inherit;fillColor=inherit;align=center;whiteSpace=wrap;html=1;" vertex="1" parent="76QTgGwpYq9l9VvrMHTE-191">
          <mxGeometry x="93" width="94" height="32" as="geometry">
            <mxRectangle width="94" height="32" as="alternateBounds" />
          </mxGeometry>
        </mxCell>
        <mxCell id="76QTgGwpYq9l9VvrMHTE-195" value="" style="shape=tableRow;horizontal=0;startSize=0;swimlaneHead=0;swimlaneBody=0;top=0;left=0;bottom=0;right=0;dropTarget=0;collapsible=0;recursiveResize=0;expand=0;fontStyle=1;strokeColor=inherit;fillColor=#EAF2D3;" vertex="1" parent="76QTgGwpYq9l9VvrMHTE-186">
          <mxGeometry y="62" width="187" height="31" as="geometry" />
        </mxCell>
        <mxCell id="76QTgGwpYq9l9VvrMHTE-196" value="2" style="connectable=0;recursiveResize=0;strokeColor=inherit;fillColor=inherit;whiteSpace=wrap;html=1;" vertex="1" parent="76QTgGwpYq9l9VvrMHTE-195">
          <mxGeometry width="93" height="31" as="geometry">
            <mxRectangle width="93" height="31" as="alternateBounds" />
          </mxGeometry>
        </mxCell>
        <mxCell id="76QTgGwpYq9l9VvrMHTE-197" value="Value 5" style="connectable=0;recursiveResize=0;strokeColor=inherit;fillColor=inherit;whiteSpace=wrap;html=1;" vertex="1" parent="76QTgGwpYq9l9VvrMHTE-195">
          <mxGeometry x="93" width="94" height="31" as="geometry">
            <mxRectangle width="94" height="31" as="alternateBounds" />
          </mxGeometry>
        </mxCell>
        <mxCell id="76QTgGwpYq9l9VvrMHTE-199" value="" style="shape=tableRow;horizontal=0;startSize=0;swimlaneHead=0;swimlaneBody=0;top=0;left=0;bottom=0;right=0;dropTarget=0;collapsible=0;recursiveResize=0;expand=0;fontStyle=0;strokeColor=inherit;fillColor=#ffffff;" vertex="1" parent="76QTgGwpYq9l9VvrMHTE-186">
          <mxGeometry y="93" width="187" height="33" as="geometry" />
        </mxCell>
        <mxCell id="76QTgGwpYq9l9VvrMHTE-200" value="3" style="connectable=0;recursiveResize=0;strokeColor=inherit;fillColor=inherit;fontStyle=0;align=center;whiteSpace=wrap;html=1;" vertex="1" parent="76QTgGwpYq9l9VvrMHTE-199">
          <mxGeometry width="93" height="33" as="geometry">
            <mxRectangle width="93" height="33" as="alternateBounds" />
          </mxGeometry>
        </mxCell>
        <mxCell id="76QTgGwpYq9l9VvrMHTE-201" value="Value 8" style="connectable=0;recursiveResize=0;strokeColor=inherit;fillColor=inherit;fontStyle=0;align=center;whiteSpace=wrap;html=1;" vertex="1" parent="76QTgGwpYq9l9VvrMHTE-199">
          <mxGeometry x="93" width="94" height="33" as="geometry">
            <mxRectangle width="94" height="33" as="alternateBounds" />
          </mxGeometry>
        </mxCell>
        <mxCell id="76QTgGwpYq9l9VvrMHTE-203" value="" style="shape=tableRow;horizontal=0;startSize=0;swimlaneHead=0;swimlaneBody=0;top=0;left=0;bottom=0;right=0;dropTarget=0;collapsible=0;recursiveResize=0;expand=0;fontStyle=1;strokeColor=inherit;fillColor=#EAF2D3;" vertex="1" parent="76QTgGwpYq9l9VvrMHTE-186">
          <mxGeometry y="126" width="187" height="31" as="geometry" />
        </mxCell>
        <mxCell id="76QTgGwpYq9l9VvrMHTE-204" value="4" style="connectable=0;recursiveResize=0;strokeColor=inherit;fillColor=inherit;whiteSpace=wrap;html=1;" vertex="1" parent="76QTgGwpYq9l9VvrMHTE-203">
          <mxGeometry width="93" height="31" as="geometry">
            <mxRectangle width="93" height="31" as="alternateBounds" />
          </mxGeometry>
        </mxCell>
        <mxCell id="76QTgGwpYq9l9VvrMHTE-205" value="Value 11" style="connectable=0;recursiveResize=0;strokeColor=inherit;fillColor=inherit;whiteSpace=wrap;html=1;" vertex="1" parent="76QTgGwpYq9l9VvrMHTE-203">
          <mxGeometry x="93" width="94" height="31" as="geometry">
            <mxRectangle width="94" height="31" as="alternateBounds" />
          </mxGeometry>
        </mxCell>
        <mxCell id="76QTgGwpYq9l9VvrMHTE-207" value="Teachers" style="whiteSpace=wrap;html=1;fillColor=#A7C942;strokeColor=#98bf21;shadow=1;" vertex="1" parent="1">
          <mxGeometry x="263.5" y="1610" width="120" height="60" as="geometry" />
        </mxCell>
        <mxCell id="76QTgGwpYq9l9VvrMHTE-257" style="edgeStyle=orthogonalEdgeStyle;rounded=0;orthogonalLoop=1;jettySize=auto;html=1;entryX=1;entryY=0.5;entryDx=0;entryDy=0;exitX=1;exitY=0.5;exitDx=0;exitDy=0;fillColor=#e1d5e7;strokeColor=#9673a6;" edge="1" parent="1" source="76QTgGwpYq9l9VvrMHTE-195" target="76QTgGwpYq9l9VvrMHTE-172">
          <mxGeometry relative="1" as="geometry">
            <Array as="points">
              <mxPoint x="670" y="1748" />
              <mxPoint x="670" y="1478" />
            </Array>
          </mxGeometry>
        </mxCell>
        <mxCell id="76QTgGwpYq9l9VvrMHTE-258" style="edgeStyle=orthogonalEdgeStyle;rounded=0;orthogonalLoop=1;jettySize=auto;html=1;entryX=1;entryY=0.5;entryDx=0;entryDy=0;exitX=1;exitY=0.5;exitDx=0;exitDy=0;fillColor=#e1d5e7;strokeColor=#9673a6;" edge="1" parent="1" source="76QTgGwpYq9l9VvrMHTE-191" target="76QTgGwpYq9l9VvrMHTE-168">
          <mxGeometry relative="1" as="geometry" />
        </mxCell>
        <mxCell id="76QTgGwpYq9l9VvrMHTE-259" style="edgeStyle=orthogonalEdgeStyle;rounded=0;orthogonalLoop=1;jettySize=auto;html=1;entryX=1;entryY=0.25;entryDx=0;entryDy=0;exitX=1;exitY=0.5;exitDx=0;exitDy=0;fillColor=#e1d5e7;strokeColor=#9673a6;" edge="1" parent="1" source="76QTgGwpYq9l9VvrMHTE-191" target="76QTgGwpYq9l9VvrMHTE-180">
          <mxGeometry relative="1" as="geometry" />
        </mxCell>
        <mxCell id="76QTgGwpYq9l9VvrMHTE-260" style="edgeStyle=orthogonalEdgeStyle;rounded=0;orthogonalLoop=1;jettySize=auto;html=1;entryX=1;entryY=0.5;entryDx=0;entryDy=0;exitX=1;exitY=0.5;exitDx=0;exitDy=0;fillColor=#e1d5e7;strokeColor=#9673a6;" edge="1" parent="1" source="76QTgGwpYq9l9VvrMHTE-199" target="76QTgGwpYq9l9VvrMHTE-176">
          <mxGeometry relative="1" as="geometry">
            <Array as="points">
              <mxPoint x="690" y="1780" />
              <mxPoint x="690" y="1510" />
            </Array>
          </mxGeometry>
        </mxCell>
        <mxCell id="76QTgGwpYq9l9VvrMHTE-261" style="edgeStyle=orthogonalEdgeStyle;rounded=0;orthogonalLoop=1;jettySize=auto;html=1;exitX=0;exitY=0.75;exitDx=0;exitDy=0;entryX=0;entryY=0.5;entryDx=0;entryDy=0;fillColor=#ffe6cc;strokeColor=#d79b00;" edge="1" parent="1" source="76QTgGwpYq9l9VvrMHTE-145" target="76QTgGwpYq9l9VvrMHTE-168">
          <mxGeometry relative="1" as="geometry">
            <Array as="points">
              <mxPoint x="430" y="1160" />
              <mxPoint x="390" y="1160" />
              <mxPoint x="390" y="1310" />
              <mxPoint x="130" y="1310" />
              <mxPoint x="130" y="1446" />
            </Array>
          </mxGeometry>
        </mxCell>
        <mxCell id="76QTgGwpYq9l9VvrMHTE-263" style="edgeStyle=orthogonalEdgeStyle;rounded=0;orthogonalLoop=1;jettySize=auto;html=1;entryX=0;entryY=0.5;entryDx=0;entryDy=0;exitX=0;exitY=0.5;exitDx=0;exitDy=0;fillColor=#ffe6cc;strokeColor=#d79b00;" edge="1" parent="1" source="76QTgGwpYq9l9VvrMHTE-145" target="76QTgGwpYq9l9VvrMHTE-180">
          <mxGeometry relative="1" as="geometry">
            <Array as="points">
              <mxPoint x="390" y="1156" />
              <mxPoint x="390" y="1310" />
              <mxPoint x="130" y="1310" />
              <mxPoint x="130" y="1541" />
            </Array>
          </mxGeometry>
        </mxCell>
        <mxCell id="76QTgGwpYq9l9VvrMHTE-281" style="edgeStyle=orthogonalEdgeStyle;rounded=0;orthogonalLoop=1;jettySize=auto;html=1;entryX=0;entryY=0.5;entryDx=0;entryDy=0;fillColor=#ffe6cc;strokeColor=#d79b00;" edge="1" parent="1" source="76QTgGwpYq9l9VvrMHTE-149" target="76QTgGwpYq9l9VvrMHTE-172">
          <mxGeometry relative="1" as="geometry">
            <Array as="points">
              <mxPoint x="370" y="1188" />
              <mxPoint x="370" y="1290" />
              <mxPoint x="100" y="1290" />
              <mxPoint x="100" y="1478" />
            </Array>
          </mxGeometry>
        </mxCell>
        <mxCell id="76QTgGwpYq9l9VvrMHTE-282" style="edgeStyle=orthogonalEdgeStyle;rounded=0;orthogonalLoop=1;jettySize=auto;html=1;entryX=0;entryY=0.75;entryDx=0;entryDy=0;fillColor=#ffe6cc;strokeColor=#d79b00;" edge="1" parent="1" source="76QTgGwpYq9l9VvrMHTE-157" target="76QTgGwpYq9l9VvrMHTE-176">
          <mxGeometry relative="1" as="geometry">
            <Array as="points">
              <mxPoint x="260" y="1252" />
              <mxPoint x="260" y="1280" />
              <mxPoint x="70" y="1280" />
              <mxPoint x="70" y="1518" />
            </Array>
          </mxGeometry>
        </mxCell>
        <mxCell id="76QTgGwpYq9l9VvrMHTE-283" style="edgeStyle=orthogonalEdgeStyle;rounded=0;orthogonalLoop=1;jettySize=auto;html=1;entryX=0;entryY=0.5;entryDx=0;entryDy=0;fillColor=#dae8fc;strokeColor=#6c8ebf;" edge="1" parent="1" source="76QTgGwpYq9l9VvrMHTE-116" target="76QTgGwpYq9l9VvrMHTE-168">
          <mxGeometry relative="1" as="geometry">
            <Array as="points">
              <mxPoint x="20" y="1156" />
              <mxPoint x="20" y="1446" />
            </Array>
          </mxGeometry>
        </mxCell>
        <mxCell id="76QTgGwpYq9l9VvrMHTE-284" style="edgeStyle=orthogonalEdgeStyle;rounded=0;orthogonalLoop=1;jettySize=auto;html=1;entryX=0;entryY=0.5;entryDx=0;entryDy=0;fillColor=#dae8fc;strokeColor=#6c8ebf;" edge="1" parent="1" source="76QTgGwpYq9l9VvrMHTE-116" target="76QTgGwpYq9l9VvrMHTE-172">
          <mxGeometry relative="1" as="geometry">
            <Array as="points">
              <mxPoint x="20" y="1156" />
              <mxPoint x="20" y="1478" />
            </Array>
          </mxGeometry>
        </mxCell>
        <mxCell id="76QTgGwpYq9l9VvrMHTE-285" style="edgeStyle=orthogonalEdgeStyle;rounded=0;orthogonalLoop=1;jettySize=auto;html=1;entryX=0;entryY=0.5;entryDx=0;entryDy=0;fillColor=#dae8fc;strokeColor=#6c8ebf;" edge="1" parent="1" source="76QTgGwpYq9l9VvrMHTE-128" target="76QTgGwpYq9l9VvrMHTE-176">
          <mxGeometry relative="1" as="geometry">
            <Array as="points">
              <mxPoint x="40" y="1251" />
              <mxPoint x="40" y="1510" />
              <mxPoint x="150" y="1510" />
            </Array>
          </mxGeometry>
        </mxCell>
        <mxCell id="76QTgGwpYq9l9VvrMHTE-286" style="edgeStyle=orthogonalEdgeStyle;rounded=0;orthogonalLoop=1;jettySize=auto;html=1;entryX=0;entryY=0.5;entryDx=0;entryDy=0;fillColor=#dae8fc;strokeColor=#6c8ebf;" edge="1" parent="1" source="76QTgGwpYq9l9VvrMHTE-124" target="76QTgGwpYq9l9VvrMHTE-180">
          <mxGeometry relative="1" as="geometry">
            <Array as="points">
              <mxPoint x="30" y="1219" />
              <mxPoint x="30" y="1541" />
            </Array>
          </mxGeometry>
        </mxCell>
      </root>
    </mxGraphModel>
  </diagram>
</mxfile>
